<svg xmlns="http://www.w3.org/2000/svg" viewBox="0 0 500 500" enable-background="new 0 0 500 500"><style type="text/css">.st0{fill:url(#SVGID_1_);stroke:#231F20;stroke-width:25;stroke-miterlimit:10;} .st1{fill:#231F20;} .st2{fill:none;}</style><radialGradient id="SVGID_1_" cx="250" cy="250" r="211.5" gradientUnits="userSpaceOnUse"><stop offset=".097" stop-color="#FCFFE6"/><stop offset="1" stop-color="#0483E6"/></radialGradient><circle class="st0" cx="250" cy="250" r="211.5"/><path class="st1" d="M381.1 206.5v-2.7h12.2c.8-1.2 4.1-7.3 0-15h-26.9l-.2-.2-24.8-31.8h-109.8c1.4 1.9 5 7 8.9 14.3l100.3-.3.2.2 25.6 32.8h-114.3c1.4 7.8 1.9 16.1.8 24.6-4.6 34.8-20.2 46.4-22.9 48.1l7.7 19.3h108.2v31h58v-92.3l-23-28zm-5 28.3h-47v-16h47v16zM239.5 171.2h1.1c-3.9-7.3-7.5-12.4-8.9-14.3h109.8l24.9 31.8.1.2h26.9c4.1 7.7.8 13.8 0 15h-12.2v2.7l23 28v92.3h-58v-31h-108.2l-7.7-19.3c2.6-1.7 18.3-13.4 22.9-48.1 1.1-8.5.6-16.8-.8-24.6h-1c1.4 7.7 1.9 16 .8 24.4-4.9 37.3-22.6 47.5-22.7 47.6l-.4.2 8.3 20.7h107.8v31h60v-93.7l-23-28v-1.3h11.8l.1-.2c.1-.1 5.1-7.4 0-16.5l-.1-.3h-27l-25-31.8-.1-.2h-112.3l.7.8c0 .2 9.2 14.6 9.2 14.6zM329.1 218.8v16h47v-16h-47zm46 15h-45v-14h45v14zM217.9 226.3l-20-.1c-.9 0-1.4.1-1.7.3 0-.4-.1-1.2-.5-2.4l-3.1-8.6c-.7-1.9-3.4-2.6-4.5-.6-1.3 2.4-2.6 4.8-4 7.3l-6.3-20.1c-.8-2.4-3.9-2.3-4.7 0-2.3 6-4.7 12-7 17.9l-6.9-32.3c-.5-2.4-4.1-2.3-4.7 0l-8.9 33.3-4.8-10.1c-1-2.1-3.8-1.2-4.5.6-1.7 4.2-3.4 8.5-5 12.7-.3.8-.6 1.3-.8 1.7-2.4 0-4.8 0-7.2-.1-3.2 0-3.2 4.9 0 4.9 3 0 6 0 9 .1 1.2 0 2-.8 2.4-1.8 1.4-3.6 2.8-7.2 4.3-10.8 1.8 3.7 3.5 7.4 5.3 11 .9 2 4 1.4 4.5-.6l8-29.8 6.4 30.3c.6 2.6 3.9 2.1 4.7 0l7.5-19.1c2 6.3 4 12.6 6 19 .6 1.9 3.4 2.6 4.5.6 1.4-2.5 2.8-5 4.1-7.6.9 2.4 1.8 4.8 2.7 7.3.4 1 1.2 1.8 2.4 1.8l23.1.2c2.8 0 2.8-5-.3-5zM209.1 274.8l-21 9 36.5 77.5 21.1-9.7zM238.9 238.9c14.3-38.4-5.4-81.3-43.8-95.5-38.4-14.3-81.3 5.4-95.5 43.8-14.3 38.4 5.4 81.3 43.8 95.5 38.4 14.3 81.2-5.3 95.5-43.8zm-69.7 29.8c-30.7 0-55.7-25-55.6-55.7 0-30.7 25-55.6 55.7-55.6s55.6 25 55.6 55.7-25 55.7-55.7 55.6z"/><path class="st2" d="M250 250M250 250"/></svg>