<svg xmlns="http://www.w3.org/2000/svg" viewBox="0 0 496.004 496.004" width="512" height="512" enable-background="new 0 0 496.004 496.004"><g fill="#0483e6"><path d="M495.539 445.314l-40-112c-1.136-3.186-4.154-5.313-7.536-5.312h-40v-16h40c4.418 0 8-3.582 8-8v-256c0-4.418-3.582-8-8-8h-400c-4.418 0-8 3.582-8 8v256c0 4.418 3.582 8 8 8h40v16h-40c-3.382 0-6.4 2.126-7.536 5.312l-40 112c-1.484 4.161.685 8.738 4.847 10.223.863.308 1.773.465 2.689.465h480c4.418.001 8-3.581 8.001-7.999.001-.916-.157-1.826-.465-2.689zm-439.536-149.312v-240h384v240h-384zm336 16v16h-288v-16h288zm-338.36 32h388.76l11.432 32h-411.624l11.432-32zm-34.288 96l17.144-48h423.008l17.144 48h-457.296zM192.003 408.002h112v16h-112zM392.003 152.002h-32c-4.418 0-8 3.582-8 8v8h-16v-8c0-4.418-3.582-8-8-8h-40v-16h8c4.418 0 8-3.582 8-8v-32c0-4.418-3.582-8-8-8h-96c-4.418 0-8 3.582-8 8v32c0 4.418 3.582 8 8 8h8v16h-40c-4.418 0-8 3.582-8 8v8h-16v-8c0-4.418-3.582-8-8-8h-32c-4.418 0-8 3.582-8 8v96c0 4.418 3.582 8 8 8h32c4.418 0 8-3.582 8-8v-8h16v8c0 4.418 3.582 8 8 8h160c4.418 0 8-3.582 8-8v-8h16v8c0 4.418 3.582 8 8 8h32c4.418 0 8-3.582 8-8v-96c0-4.418-3.581-8-8-8zm-264 96h-16v-80h16v80zm32-16h-16v-48h16v48zm48-128h80v16h-80v-16zm64 32v16h-48v-16h48zm48 112h-144v-80h144v80zm32-16h-16v-48h16v48zm32 16h-16v-80h16v80z"/></g></svg>