<svg xmlns="http://www.w3.org/2000/svg" viewBox="0 0 480 480" width="512" height="512" enable-background="new 0 0 480 480"><path d="M472 251.982h-12.152l9.6-24h2.552c4.418 0 8-3.582 8-8s-3.582-8-8-8h-8c-3.272-.003-6.215 1.987-7.432 5.024l-16 40c-1.644 4.101.349 8.758 4.45 10.402.948.38 1.961.575 2.982.574h24c4.418 0 8-3.582 8-8s-3.582-8-8-8zM144 315.982c-17.673 0-32 14.327-32 32 0 17.673 14.327 32 32 32s32-14.327 32-32c0-17.674-14.327-32-32-32zm0 48c-8.837 0-16-7.163-16-16s7.163-16 16-16 16 7.163 16 16-7.163 16-16 16zM280 347.982c.175-10.284-6.28-19.515-16-22.88v-129.12c0-2.122-.844-4.156-2.344-5.656l-14.152-14.152-15.6-101.408c-.6-3.902-3.956-6.782-7.904-6.784h-144v-24c0-4.418-3.582-8-8-8h-64c-4.418 0-8 3.582-8 8s3.582 8 8 8h56v232h-56c-4.418 0-8 3.582-8 8s3.582 8 8 8h64c4.418 0 8-3.582 8-8v-208h137.168l14.96 97.216c.258 1.681 1.046 3.237 2.248 4.44l13.624 13.656v124.688h-44.68c-13.034-32.798-50.188-48.82-82.987-35.786-27.218 10.817-43.599 38.752-39.749 67.786h-72.584c-4.418 0-8 3.582-8 8s3.582 8 8 8h76.712c13.217 32.744 50.476 48.573 83.22 35.356 16.096-6.497 28.859-19.26 35.356-35.356h54.312c12.799-.474 22.809-11.2 22.4-24zm-136 48c-26.51 0-48-21.49-48-48 .026-26.499 21.501-47.974 48-48 26.51 0 48 21.49 48 48 0 26.509-21.49 48-48 48zm119.8-46.2c-.695 3.091-3.109 5.505-6.2 6.2h-49.6v-16h49.6c4.418.994 7.194 5.381 6.2 9.8zM472 355.982h-8.72c-4.392-26.112-29.12-43.72-55.232-39.328-20.151 3.389-35.939 19.177-39.328 39.328h-16.72v-24c0-4.418-3.582-8-8-8h-16v-48.696l80.752-7.304c2.891-.261 5.414-2.067 6.592-4.72l29.888-67.28h26.768c4.418 0 8-3.582 8-8s-3.582-8-8-8h-32c-3.162 0-6.028 1.862-7.312 4.752l-30.088 67.704-83.288 7.544c-4.148.358-7.327 3.837-7.312 8v56.848c-9.846 3.356-16.342 12.755-16 23.152-.679 12.497 8.838 23.206 21.328 24h51.392c4.392 26.112 29.12 43.72 55.232 39.328 20.151-3.389 35.939-19.177 39.328-39.328h8.72c4.418 0 8-3.582 8-8s-3.582-8-8-8zm-136 0h-18.64c-2.52 0-5.328-3.288-5.328-8s2.808-8 5.328-8h18.64v16zm80 40c-17.673 0-32-14.327-32-32 0-17.673 14.327-32 32-32 17.673 0 32 14.327 32 32 0 17.673-14.327 32-32 32zM208 179.102l-8-72c-.451-4.071-3.904-7.145-8-7.12h-80c-4.418 0-8 3.582-8 8v72c0 4.418 3.582 8 8 8h88c4.418.027 8.022-3.533 8.048-7.951.002-.311-.014-.621-.048-.929zm-88-7.12v-56h64.84l6.224 56h-71.064zM224 267.982c-4.418 0-8 3.582-8 8v24c0 4.418 3.582 8 8 8s8-3.582 8-8v-24c0-4.419-3.582-8-8-8zM357.712 422.326l-24.024-24c-3.114-3.134-8.179-3.151-11.314-.036-.28.278-.539.576-.774.892l-16.232 21.6-18.168-36.376c-1.974-3.953-6.779-5.557-10.731-3.583-.588.294-1.138.659-1.637 1.087l-42.832 36.68v-22.608c0-4.418-3.582-8-8-8s-8 3.582-8 8v40c0 4.418 3.582 8 8.001 7.999 1.91 0 3.757-.684 5.207-1.927l48.216-41.328 19.416 38.832c1.956 3.962 6.753 5.588 10.715 3.633 1.14-.562 2.129-1.388 2.885-2.409l18.464-24.624 17.496 17.48c3.178 3.07 8.242 2.982 11.312-.196 2.995-3.101 2.995-8.016 0-11.116zM385.051 156.046c-2.235-.278-4.484.398-6.195 1.864l-47.728 40.912-19.712-45.992c-1.742-4.061-6.445-5.94-10.506-4.199-2.295.984-3.999 2.984-4.606 5.407l-16 64c-1.076 4.276 1.511 8.616 5.784 9.704 4.286 1.073 8.63-1.53 9.704-5.816l10.24-40.96 14.648 34.168c1.741 4.061 6.445 5.941 10.505 4.199.746-.32 1.439-.751 2.055-1.279l40.288-34.536-5.432 43.472c-.547 4.383 2.562 8.379 6.944 8.928.331.045.666.066 1 .064 4.043.011 7.459-2.996 7.96-7.008l8-64c.546-4.385-2.565-8.382-6.949-8.928z" fill="#0483e6"/></svg>