<svg xmlns="http://www.w3.org/2000/svg" viewBox="0 0 480.105 480.105" width="512" height="512" enable-background="new 0 0 480.105 480.105"><path fill="#0483e6" d="M429.166 43.326l7.627-14.066 14.066 7.627-7.627 14.066zM421.693 176.049l-98.144-25.928c-4.272-1.127-8.649 1.423-9.776 5.695v.001c-1.127 4.272 1.423 8.649 5.695 9.776h.001l98.136 25.928c.669.173 1.357.262 2.048.264 4.418.001 8.001-3.58 8.002-7.998 0-3.634-2.448-6.812-5.962-7.738zM437.725 147.241l-98.976-25.264c-4.281-1.091-8.637 1.495-9.728 5.776-1.091 4.281 1.495 8.637 5.776 9.728l98.976 25.256c.645.168 1.309.251 1.976.248 4.418-.017 7.986-3.613 7.969-8.031-.015-3.634-2.476-6.801-5.993-7.713zM287.029 299.305h16v16h-16zM479.667 34.168c-3.224-21.855-23.554-36.958-45.409-33.734s-36.958 23.554-33.734 45.409c.553 3.75 1.636 7.402 3.217 10.846l-7.736 14.168-7.016-3.816c-3.879-2.11-8.735-.678-10.848 3.2l-13.104 24.136-11.496-3.072c-4.266-1.153-8.659 1.37-9.812 5.636-1.153 4.266 1.37 8.659 5.636 9.812l100.384 27.2c.68.187 1.383.281 2.088.28 4.418.011 8.009-3.562 8.02-7.98.009-3.629-2.426-6.81-5.932-7.748l-9.528-2.576 4.056-7.48c2.11-3.879.678-8.735-3.2-10.848l-7.032-3.816 7.712-14.208c21.854-3.224 36.958-23.554 33.734-45.409zm-51.166 77.433l-16.496-4.48-31.128-8.432 7.472-13.768 15.528 8.432 19.664 10.672 7.008 3.8-2.048 3.776zm5.384-43.448l-9.744 17.96-14.064-7.608 9.752-17.976c1.358-2.505 1.282-5.543-.2-7.976-6.946-11.289-3.425-26.072 7.865-33.017 11.289-6.946 26.072-3.424 33.017 7.865 6.946 11.289 3.425 26.072-7.865 33.017-3.607 2.219-7.736 3.444-11.969 3.551-2.848.086-5.435 1.68-6.792 4.184zM472.005 248.105h-48c-4.418 0-8 3.582-8 8v24h-51.6l10.968-20.208c2.11-3.879.678-8.735-3.2-10.848l-14.064-7.632 15.576-28.712 27.792 7.592c4.264 1.164 8.664-1.348 9.828-5.612 1.164-4.264-1.348-8.664-5.612-9.828l-97.336-26.584c-4.282-1.09-8.636 1.498-9.726 5.78-1.063 4.176 1.373 8.444 5.51 9.652l21.968 6.008-10.208 18.792-14.064-7.632c-3.878-2.105-8.727-.673-10.84 3.2l-15.264 28.128c-2.11 3.879-.678 8.735 3.2 10.848l14.064 7.624-3.888 7.2c-2.693.397-5.339 1.067-7.896 2-5.826 2.155-11.057 5.662-15.264 10.232h-57.944v-24c0-4.418-3.582-8-8-8h-24v-64c-.026-22.08-17.92-39.974-40-40h-96c-22.08.026-39.974 17.92-40 40v256c.026 22.08 17.92 39.974 40 40h96c22.08-.026 39.974-17.92 40-40v-64h24c4.418 0 8-3.582 8-8v-24h71.792c9.774 4.18 20.834 4.18 30.608 0h105.6v24c0 4.418 3.582 8 8 8h48c4.418 0 8-3.582 8-8v-112c0-4.418-3.582-8-8-8zm-440 214.528c-9.555-3.378-15.958-12.394-16-22.528v-256c.042-10.134 6.445-19.15 16-22.528v301.056zm32 1.472h-16v-304h16v304zm32 0h-16v-304h16v304zm32 0h-16v-304h16v304zm32-208v184c-.042 10.134-6.445 19.15-16 22.528v-301.056c9.555 3.378 15.958 12.394 16 22.528v72zm32 32v72h-16v-96h16v24zm16 40v-32h48.632c-.634 2.213-1.071 4.478-1.304 6.768 0 .288-.08.576-.112.864-.192 2.268-.192 4.548 0 6.816 0 .352.048.696.088 1.048.242 2.213.67 4.403 1.28 6.544.096.352.2.704.312 1.056.656 2.127 1.489 4.195 2.488 6.184l.504.936c.32.592.608 1.208.96 1.784h-52.848zm132.72-121.776l15.328 5.28-12.048 22.176-14.064-7.632 10.784-19.824zm-39.488 22.448l56.256 30.528-7.632 14.056-33.184-18-9-4.856-14.072-7.664 7.632-14.064zm14.168 66.104c6.901 11.223 3.398 25.916-7.826 32.817-6.895 4.24-15.47 4.694-22.774 1.207-.216-.104-.976-.392-1.2-.472-11.647-6.322-15.966-20.887-9.648-32.536.585-1.033 1.251-2.017 1.992-2.944 2.736-3.653 6.474-6.433 10.76-8 2.461-.893 5.047-1.39 7.664-1.472 2.846-.084 5.432-1.675 6.792-4.176l5.928-10.936 14.064 7.632-5.952 10.904c-1.359 2.505-1.283 5.543.2 7.976zm68.6 33.224h-54.8c.344-.56.672-1.128.984-1.712 1.115-2.099 2.036-4.294 2.752-6.56l.376-1.16c.626-2.148 1.067-4.345 1.32-6.568.048-.44.08-.88.12-1.32.196-2.278.196-4.57 0-6.848 0-.2-.064-.384-.08-.584-.24-2.201-.66-4.379-1.256-6.512l-.136-.712h50.72v31.976zm32 0h-16v-32h16v32zm48 32h-32v-96h32v96z"/></svg>