<?xml version="1.0"?>
<svg xmlns="http://www.w3.org/2000/svg" height="512px" viewBox="0 0 512 512" width="512px"><g><path d="m256 512c141.386719 0 256-114.613281 256-256s-114.613281-256-256-256-256 114.613281-256 256c.160156 141.320312 114.679688 255.839844 256 256zm0-494.933594c131.960938 0 238.933594 106.972656 238.933594 238.933594s-106.972656 238.933594-238.933594 238.933594-238.933594-106.972656-238.933594-238.933594c.152344-131.898438 107.035156-238.78125 238.933594-238.933594zm0 0" data-original="#000000" class="active-path" data-old_color="#000000" fill="#0483E6"/><path d="m256 469.332031c117.820312 0 213.332031-95.511719 213.332031-213.332031s-95.511719-213.332031-213.332031-213.332031-213.332031 95.511719-213.332031 213.332031c.128906 117.765625 95.566406 213.203125 213.332031 213.332031zm-189.652344-162.839843 52.582032-14.003907c20.484374-5.46875 42.351562-1.105469 59.167968 11.804688 16.820313 12.910156 26.6875 32.902343 26.703125 54.105469v87.042968c-67.570312-18.414062-120.285156-71.316406-138.453125-138.949218zm155.519532 142.746093v-90.839843c-.015626-26.5-12.347657-51.492188-33.367188-67.628907-21.023438-16.140625-48.351562-21.597656-73.957031-14.765625l-51.839844 13.796875c-3.792969-21.457031-3.953125-43.402343-.476563-64.914062 40.453126-14.617188 115.503907-37.152344 193.773438-37.152344s153.320312 22.535156 193.773438 37.152344c3.476562 21.511719 3.316406 43.457031-.476563 64.914062l-51.839844-13.796875c-25.605469-6.832031-52.933593-1.375-73.957031 14.765625-21.019531 16.136719-33.351562 41.128907-33.367188 67.628907v90.839843c-22.574218 4.039063-45.691406 4.039063-68.265624 0zm85.332031-3.796875v-87.042968c.015625-21.199219 9.878906-41.191407 26.699219-54.101563 16.816406-12.910156 38.679687-17.273437 59.164062-11.808594l52.589844 14.003907c-18.167969 67.632812-70.882813 120.535156-138.453125 138.949218zm-51.199219-385.707031c88.832031.117187 166.546875 59.796875 189.59375 145.585937-60.949219-21.570312-124.953125-33.265624-189.59375-34.652343-64.640625 1.386719-128.644531 13.082031-189.59375 34.652343 23.046875-85.789062 100.761719-145.46875 189.59375-145.585937zm0 0" data-original="#000000" class="active-path" data-old_color="#000000" fill="#0483E6"/><path d="m315.734375 256c0-32.988281-26.746094-59.734375-59.734375-59.734375s-59.734375 26.746094-59.734375 59.734375 26.746094 59.734375 59.734375 59.734375c32.972656-.039063 59.695312-26.761719 59.734375-59.734375zm-102.402344 0c0-23.5625 19.105469-42.667969 42.667969-42.667969s42.667969 19.105469 42.667969 42.667969-19.105469 42.667969-42.667969 42.667969c-23.550781-.03125-42.636719-19.117188-42.667969-42.667969zm0 0" data-original="#000000" class="active-path" data-old_color="#000000" fill="#0483E6"/><path d="m281.601562 256c0-14.136719-11.464843-25.601562-25.601562-25.601562s-25.601562 11.464843-25.601562 25.601562 11.464843 25.601562 25.601562 25.601562 25.601562-11.464843 25.601562-25.601562zm-34.136718 0c0-4.710938 3.824218-8.535156 8.535156-8.535156s8.535156 3.824218 8.535156 8.535156-3.824218 8.535156-8.535156 8.535156-8.535156-3.824218-8.535156-8.535156zm0 0" data-original="#000000" class="active-path" data-old_color="#000000" fill="#0483E6"/></g> </svg>
