<svg xmlns="http://www.w3.org/2000/svg" viewBox="0 0 463 463" width="512" height="512" enable-background="new 0 0 463 463"><g fill="#0483e6"><path d="M215.5 263h32c4.142 0 7.5-3.358 7.5-7.5s-3.358-7.5-7.5-7.5h-32c-4.142 0-7.5 3.358-7.5 7.5s3.358 7.5 7.5 7.5zM424.32 339.525c-.215-.108-.436-.205-.66-.292l-56.815-21.864c-5.941-2.286-10.503-7.062-12.517-13.101l-2.277-6.832c12.723-18.265 17.624-36.194 5.689-54.097-5.402-8.104-12.05-13.942-20.244-17.787 3.567-13.244 5.504-27.377 5.504-42.052v-.5h.5c8.547 0 15.5-6.953 15.5-15.5v-16c0-5.827-3.235-10.908-8-13.555v-18.445c0-65.893-53.607-119.5-119.5-119.5s-119.5 53.607-119.5 119.5v18.445c-4.765 2.647-8 7.728-8 13.555v16c0 8.547 6.953 15.5 15.5 15.5h.5v.5c0 14.675 1.937 28.808 5.504 42.053-8.195 3.845-14.842 9.683-20.244 17.787-11.935 17.902-7.034 35.831 5.689 54.097l-2.277 6.832c-2.013 6.04-6.575 10.815-12.517 13.101l-56.815 21.863c-.225.086-.445.184-.66.292-18.924 9.462-30.68 28.483-30.68 49.641v50.334c0 12.958 10.542 23.5 23.5 23.5h400c12.958 0 23.5-10.542 23.5-23.5v-50.334c0-21.158-11.756-40.179-30.68-49.641zm-79.06-87.865c4.378 6.567 7.955 16.379-3.345 34.104-5.868 9.204-14.678 18.991-24.751 29.228-3.647-1.04-6.163-4.337-6.163-8.165v-27.327c0-.341-.031-.674-.075-1.003 9.014-11.128 16.461-24.134 21.903-38.487 4.921 2.66 8.944 6.42 12.431 11.65zm-206.908-36.66h1.848c5.284 0 10.25 2.058 14.006 5.813 6.569 6.569 15.304 10.187 24.594 10.187h105.4c9.29 0 18.024-3.618 24.613-10.207 3.736-3.736 8.703-5.793 13.987-5.793h1.848c-11.119 51.215-48.663 89-93.148 89s-82.029-37.785-93.148-89zm22.02 108.2c4.141-4.262 6.628-10.055 6.628-16.372v-12.858c18.219 15.756 40.485 25.03 64.5 25.03s46.281-9.274 64.5-25.03v12.857c0 6.317 2.486 12.109 6.627 16.371-21.816 13.623-46.29 20.802-71.127 20.802-24.836 0-49.312-7.178-71.128-20.8zm71.128 35.8c17.119 0 34.061-3.067 50.229-8.972-20.476 20.803-39.967 43.388-50.229 68.686-10.262-25.298-29.754-47.884-50.229-68.687 16.168 5.906 33.11 8.973 50.229 8.973zm112.5-191.5c0 .276-.224.5-.5.5h-16.5v-17h16.5c.276 0 .5.224.5.5v16zm-57 .5v-17h25v17h-25zm-48 0v-17h33v17h-33zm-48 0v-17h33v17h-33zm-40 0v-17h25v17h-25zm145-32h-33v-16.5c0-30.429-2.556-59.112-7.196-80.768-1.597-7.454-3.359-13.783-5.309-19.031 9.454 4.791 18.21 13.15 25.608 24.658 12.831 19.96 19.897 46.645 19.897 75.141v16.5zm-81 0v-16.5c0-27.144 2.123-53.161 5.978-73.258 3.876-20.206 8.362-28.397 10.522-30.734 2.16 2.337 6.646 10.528 10.522 30.734 3.855 20.097 5.978 46.114 5.978 73.258v16.5h-33zm-2.495-116.298c-1.951 5.248-3.712 11.577-5.309 19.031-4.64 21.655-7.196 50.338-7.196 80.767v16.5h-33v-16.5c0-28.496 7.066-55.181 19.897-75.14 7.398-11.509 16.154-19.867 25.608-24.658zm123.495 99.798v16.5h-25v-16.5c0-31.337-7.912-60.903-22.279-83.251-1.655-2.575-3.378-5.014-5.156-7.33 31.313 18.068 52.435 51.904 52.435 90.581zm-156.564-90.582c-1.779 2.317-3.501 4.756-5.156 7.33-14.368 22.349-22.28 51.915-22.28 83.252v16.5h-25v-16.5c0-38.677 21.122-72.513 52.436-90.582zm-60.436 138.582v-16c0-.276.224-.5.5-.5h16.5v17h-16.5c-.276 0-.5-.224-.5-.5zm65.025 15.5l-.025.5v8c0 4.142 3.358 7.5 7.5 7.5s7.5-3.358 7.5-7.5v-8l-.025-.5h65.05l-.025.5v8c0 4.142 3.358 7.5 7.5 7.5s7.5-3.358 7.5-7.5v-8l-.025-.5h49.025v.5c0 5.597-.314 11.104-.909 16.5h-4.291c-9.29 0-18.024 3.618-24.613 10.207-3.736 3.736-8.703 5.793-13.987 5.793h-105.4c-5.284 0-10.25-2.058-14.006-5.813-6.569-6.569-15.304-10.187-24.594-10.187h-4.292c-.594-5.396-.909-10.903-.909-16.5v-.5h49.026zm-66.285 68.66c3.487-5.23 7.51-8.99 12.432-11.65 5.442 14.353 12.889 27.359 21.903 38.487-.044.329-.075.662-.075 1.003v27.328c0 3.828-2.516 7.125-6.163 8.165-10.073-10.237-18.884-20.024-24.751-29.228-11.3-17.726-7.724-27.537-3.346-34.105zm-94.74 187.84v-50.334c0-15.323 8.451-29.112 22.079-36.068l56.463-21.729c9.337-3.592 16.669-10.793 20.455-19.958 8.845 10.13 19.357 20.385 30.052 30.816 31.753 30.969 67.484 65.83 71.556 105.774h-120.605v-24.5c0-4.142-3.358-7.5-7.5-7.5s-7.5 3.358-7.5 7.5v24.499h-56.5c-4.687 0-8.5-3.813-8.5-8.5zm417 0c0 4.687-3.813 8.5-8.5 8.5h-56.5v-24.5c0-4.142-3.358-7.5-7.5-7.5s-7.5 3.358-7.5 7.5v24.5h-120.605c4.072-39.944 39.802-74.805 71.556-105.774 10.695-10.431 21.207-20.686 30.052-30.816 3.786 9.165 11.118 16.366 20.455 19.958l56.463 21.729c13.628 6.957 22.079 20.745 22.079 36.069v50.334z"/></g></svg>