<svg xmlns="http://www.w3.org/2000/svg" viewBox="0 0 480.004 480.004" width="512" height="512" enable-background="new 0 0 480.004 480.004"><path d="M479.202 292.692l.072-.024-78.808-171.952 19.112-9.512-7.152-14.32-18.632 9.28-2.52-5.496c-1.842-4.016-6.59-5.779-10.606-3.938-1.742.799-3.139 2.196-3.938 3.938l-2.248 4.912c-13.56-6.298-28.329-9.566-43.28-9.576h-67.2v-16h16v-16h-13.752l5.752-23.016c4.416-17.673-6.33-35.58-24.003-39.997-17.673-4.416-35.58 6.33-39.997 24.003-1.312 5.25-1.312 10.743 0 15.993l5.752 23.016h-13.752v16h16v16h-67.16c-14.966.012-29.75 3.288-43.32 9.6l-2.248-4.912c-1.841-4.016-6.59-5.779-10.606-3.938-1.742.799-3.139 2.196-3.938 3.938l-2.52 5.496-18.632-9.32-7.152 14.336 19.112 9.552-78.808 171.913c-.486 1.045-.734 2.184-.728 3.336.035 30.913 25.087 55.965 56 56h80c30.913-.035 55.965-25.087 56-56-.02-1.149-.293-2.28-.8-3.312l-79.024-172.6c11.487-5.332 24-8.092 36.664-8.088h67.16v292.688l-27.312 27.312h-28.688c-22.08.026-39.974 17.92-40 40 0 4.418 3.582 8 8 8h224c4.418 0 8-3.582 8-8-.026-22.08-17.92-39.974-40-40h-28.688l-27.312-27.312v-292.688h67.2c12.664-.004 25.177 2.756 36.664 8.088l-79.136 172.576c-.486 1.045-.734 2.184-.728 3.336.035 30.913 25.087 55.965 56 56h80c30.913-.035 55.965-25.087 56-56-.019-1.149-.292-2.28-.8-3.312zm-343.2 43.312h-80c-19.002-.021-35.375-13.387-39.2-32h158.4c-3.824 18.613-20.198 31.979-39.2 32zm35.536-48h-151.072l73.488-160.328c1.342.36 2.754.36 4.096 0l73.488 160.328zm55.08-265.472c6.23-7.392 17.273-8.333 24.665-2.103.759.64 1.463 1.344 2.103 2.103 3.236 4.116 4.379 9.5 3.096 14.576l-6.728 26.896h-19.504l-6.728-26.896c-1.283-5.076-.139-10.46 3.096-14.576zm5.384 73.472v-16h16v16h-16zm16 16v288h-16v-288h16zm72 336c10.168.012 19.229 6.418 22.632 16h-205.264c3.403-9.582 12.464-15.988 22.632-16h160zm-51.312-16h-57.376l16-16h25.376l16 16zm113.248-304.304c1.321.465 2.77.405 4.048-.168l73.552 160.472h-151.072l73.472-160.304zm42.064 208.304h-80c-19.002-.021-35.375-13.387-39.2-32h158.4c-3.824 18.613-20.198 31.979-39.2 32z" fill="#0483e6"/></svg>